<?xml version="1.0" encoding="UTF-8" standalone="no"?>
<!DOCTYPE svg PUBLIC "-//W3C//DTD SVG 1.1//EN" "http://www.w3.org/Graphics/SVG/1.1/DTD/svg11.dtd">
<svg width="100%" height="100%" viewBox="0 0 688 363" version="1.1" xmlns="http://www.w3.org/2000/svg" xmlns:xlink="http://www.w3.org/1999/xlink" xml:space="preserve" xmlns:serif="http://www.serif.com/" style="fill-rule:evenodd;clip-rule:evenodd;stroke-linejoin:round;stroke-miterlimit:2;">
    <g transform="matrix(1,0,0,1,236.602,40.7539)">
        <path d="M0,0C2.02,1.892 4.075,3.676 6.211,5.434C9.583,8.307 13.104,11.425 15.398,15.246C14.091,19.17 12.661,19.502 9.078,21.461C7.985,22.065 6.892,22.669 5.766,23.291C4.613,23.916 3.461,24.54 2.273,25.184C0.021,26.422 -2.232,27.66 -4.484,28.898C-5.547,29.477 -6.609,30.056 -7.704,30.652C-10.086,31.963 -12.438,33.308 -14.781,34.688C-17.602,36.246 -17.602,36.246 -19.602,36.246C-20.752,35.131 -21.895,34.008 -23.012,32.859C-40.78,14.829 -64.124,5.155 -89.352,4.934C-103.967,4.895 -118.49,7.652 -131.602,14.246C-132.519,14.687 -133.437,15.128 -134.383,15.582C-141.572,19.237 -147.578,23.913 -153.602,29.246C-154.227,29.788 -154.852,30.329 -155.496,30.887C-180.837,54.388 -188.906,93.224 -190.602,126.246C-190.816,133.057 -190.846,139.87 -190.852,146.684C-190.853,147.619 -190.854,148.555 -190.855,149.519C-190.845,162.955 -190.576,176.084 -187.602,189.246C-187.457,189.914 -187.312,190.582 -187.164,191.271C-180.581,220.883 -165.043,249.017 -139.203,265.835C-119.627,278.16 -96.589,282.126 -73.852,278.184C-52.587,273.26 -35.394,260.762 -21.418,244.316C-19.251,241.847 -16.942,239.55 -14.602,237.246C-13.947,237.619 -13.292,237.992 -12.617,238.376C-9.613,240.085 -6.607,241.79 -3.602,243.496C-2.572,244.083 -1.542,244.669 -0.48,245.273C5.078,248.424 10.651,251.455 16.398,254.246C12.634,271.686 -11.2,289.66 -25.414,298.934C-54.012,316.958 -87.339,324.463 -120.906,317.655C-122.813,317.221 -124.708,316.734 -126.602,316.246C-127.253,316.08 -127.904,315.914 -128.576,315.742C-162.266,306.887 -190.767,284.185 -208.312,254.21C-210.154,250.928 -211.895,247.601 -213.602,244.246C-213.951,243.571 -214.3,242.896 -214.659,242.201C-222.289,227.311 -227.002,212.052 -230.352,195.684C-230.65,194.232 -230.65,194.232 -230.954,192.752C-234.111,176.414 -234.979,160.23 -234.914,143.621C-234.912,142.655 -234.91,141.69 -234.909,140.694C-234.862,126.027 -234.337,111.693 -231.602,97.246C-231.43,96.302 -231.258,95.357 -231.082,94.384C-224.538,59.145 -210.774,28.775 -186.602,2.246C-185.916,1.488 -185.23,0.73 -184.523,-0.051C-167.581,-17.847 -144.367,-29.425 -120.602,-34.754C-119.659,-34.968 -118.717,-35.182 -117.746,-35.402C-75.008,-44.114 -31.35,-29.465 0,0Z" style="fill-rule:nonzero;"/>
    </g>
    <g transform="matrix(1,0,0,1,410.312,84.4375)">
        <path d="M0,0C3.842,3.594 7.017,7.022 9.688,11.563L9.688,15.563C7.255,16.762 4.818,17.947 2.375,19.125C1.34,19.638 1.34,19.638 0.283,20.162C-4.973,22.676 -4.973,22.676 -8.313,21.563C-9.82,19.926 -9.82,19.926 -11.438,17.875C-17.517,10.716 -24.783,6.032 -34.266,5.227C-45.831,4.982 -54.761,6.257 -63.496,14.516C-71.859,23.94 -75.281,35.129 -75.313,47.563C-74.653,58.621 -70.429,69.815 -62.313,77.563C-53.399,83.672 -44.369,87.823 -33.313,86.563C-20.593,83.89 -12.449,78.337 -5.313,67.563C-1.568,68.231 1.22,69.888 4.438,71.875C5.422,72.469 6.407,73.064 7.422,73.676C8.17,74.298 8.917,74.921 9.688,75.563C9.688,82.081 5.227,85.757 1.004,90.422C-3.245,94.548 -8.075,97.217 -13.313,99.875C-14.309,100.382 -14.309,100.382 -15.326,100.899C-27.896,107.002 -43.073,107.915 -56.375,103.5C-62.78,101.055 -68.025,97.891 -73.313,93.563C-73.996,93.052 -74.679,92.542 -75.383,92.016C-86.858,82.925 -94.122,68.933 -96.313,54.563C-97.546,37.141 -94.485,21.833 -83.211,7.98C-80.983,5.427 -78.688,2.979 -76.313,0.563C-75.674,-0.088 -75.036,-0.739 -74.379,-1.41C-52.926,-21.703 -21.199,-18.412 0,0Z" style="fill-rule:nonzero;"/>
    </g>
    <g transform="matrix(1,0,0,1,434,67)">
        <path d="M0,0C5.94,0.33 11.88,0.66 18,1C18.33,16.84 18.66,32.68 19,49C20.65,47.35 22.3,45.7 24,44C33.092,38.706 42.478,37.72 52.625,40.188C61.166,42.784 65.192,46.572 69.738,54.207C73.288,62.064 73.269,69.546 73.195,78.031C73.192,79.263 73.19,80.495 73.187,81.764C73.176,85.676 73.15,89.588 73.125,93.5C73.114,96.161 73.106,98.823 73.098,101.484C73.076,107.99 73.041,114.495 73,121L54,121C53.991,119.436 53.981,117.873 53.972,116.262C53.932,110.439 53.866,104.617 53.792,98.795C53.764,96.28 53.743,93.764 53.729,91.248C53.708,87.623 53.661,83.999 53.609,80.375C53.608,79.257 53.607,78.139 53.606,76.987C53.48,70.233 52.673,65.728 49,60C43.213,56.142 36.785,56.217 30,57C26.788,57.816 24.543,58.884 22,61C18.693,67.674 18.531,73.797 18.488,81.156C18.47,82.299 18.452,83.442 18.434,84.62C18.38,88.246 18.346,91.873 18.313,95.5C18.279,97.969 18.245,100.438 18.209,102.906C18.124,108.937 18.057,114.969 18,121L-1,121C-1.023,105.371 -1.041,89.742 -1.052,74.114C-1.057,66.857 -1.064,59.601 -1.075,52.345C-1.085,46.023 -1.092,39.7 -1.094,33.378C-1.095,30.028 -1.098,26.679 -1.106,23.329C-1.113,19.596 -1.114,15.863 -1.114,12.129C-1.117,11.011 -1.121,9.892 -1.124,8.74C-1.123,7.729 -1.122,6.718 -1.12,5.676C-1.121,4.792 -1.122,3.908 -1.123,2.997C-1,1 -1,1 0,0Z" style="fill-rule:nonzero;"/>
    </g>
    <g transform="matrix(1,0,0,1,551,246)">
        <path d="M0,0C10.571,7.551 15.496,16.481 18,29L18,42L-41,42C-38.572,52.527 -38.572,52.527 -32,60C-25.716,63.247 -19.171,64.083 -12.336,62.309C-5.919,60.196 -1.185,57.304 4,53C7.96,55.97 11.92,58.94 16,62C12.777,70.057 6.675,73.485 -1.125,76.875C-5.449,78.54 -9.342,79.741 -14,80C-14.733,80.05 -15.467,80.101 -16.223,80.152C-28.171,80.626 -40.361,77.029 -49.27,68.875C-57.096,60.395 -60.889,50.384 -61.313,38.875C-60.299,26.313 -56.904,14.057 -47.141,5.34C-34.151,-4.295 -14.746,-9.45 0,0ZM-35.938,17.813C-38.485,21.41 -38.485,21.41 -40,28L-2,28C-3.09,20.372 -4.063,17.232 -10.125,12.625C-18.671,8.279 -29.553,10.849 -35.938,17.813Z" style="fill-rule:nonzero;"/>
    </g>
    <g transform="matrix(1,0,0,1,461.762,244.551)">
        <path d="M0,0C11.04,7.148 15.69,15.029 19.238,27.449L19.238,43.449C-9.472,43.944 -9.472,43.944 -38.762,44.449C-36.706,54.034 -36.706,54.034 -30.949,61.199C-24.393,64.946 -17.168,65.583 -9.953,63.727C-4.255,61.817 -0.069,59.64 4.238,55.449C9.328,57.04 13.113,60.194 17.238,63.449C15.612,69.591 11.109,72.699 5.906,75.871C-6.113,82.307 -18.854,83.062 -31.91,79.418C-41.179,76.269 -48.709,70.878 -53.559,62.254C-59.889,49.02 -60.356,36.423 -55.762,22.449C-50.945,11.659 -43.116,3.843 -32.242,-0.676C-22.743,-4.027 -9.195,-4.526 0,0ZM-33.699,19.262C-36.247,22.859 -36.247,22.859 -37.762,29.449L0.238,29.449C-1.791,20.317 -2.304,18.387 -9.512,13.637C-18.068,10.51 -27.436,12.411 -33.699,19.262Z" style="fill-rule:nonzero;"/>
    </g>
    <g transform="matrix(1,0,0,1,329,210)">
        <path d="M0,0L19,0L19,95L68,95L68,113L-1,113C-1.04,85.089 -1.04,85.089 -1.049,73.236C-1.055,65.133 -1.062,57.03 -1.075,48.927C-1.086,42.398 -1.092,35.869 -1.095,29.339C-1.097,26.842 -1.1,24.345 -1.106,21.848C-1.113,18.363 -1.114,14.879 -1.114,11.395C-1.117,10.351 -1.121,9.307 -1.124,8.232C-1.123,7.288 -1.122,6.345 -1.12,5.372C-1.121,4.547 -1.122,3.722 -1.123,2.872C-1,1 -1,1 0,0Z" style="fill-rule:nonzero;"/>
    </g>
    <g transform="matrix(1,0,0,1,672.012,112.129)">
        <path d="M0,0C7.377,6.388 7.377,6.388 7.988,10.871C6.583,11.907 5.163,12.925 3.738,13.934C2.949,14.502 2.16,15.071 1.348,15.656C-1.012,16.871 -1.012,16.871 -3.16,16.676C-5.012,15.871 -5.012,15.871 -7.387,13.934C-13.064,9.473 -19.059,9.378 -26.012,9.871C-27.353,10.169 -28.691,10.491 -30.012,10.871C-30.147,12.306 -30.244,13.745 -30.324,15.184C-30.382,15.984 -30.44,16.785 -30.5,17.609C-30.217,20.023 -30.217,20.023 -28.137,21.484C-22.932,23.794 -17.444,25.052 -11.936,26.445C-4.472,28.446 2.396,31.247 7.363,37.434C7.825,37.992 8.286,38.55 8.762,39.125C12.248,44.088 13.05,48.861 12.988,54.871C11.957,60.677 9.677,66.118 4.988,69.871C-6.511,77.06 -17.679,79.08 -31.012,76.871C-36.473,75.558 -41.151,73.387 -45.219,70.29C-48.523,67.773 -51.423,64.646 -54.012,60.871L-54.012,58.871C-52.042,57.248 -50.078,55.735 -48.012,54.246C-47.153,53.616 -47.153,53.616 -46.277,52.973C-44.86,51.933 -43.436,50.901 -42.012,49.871C-41.588,50.258 -41.164,50.645 -40.727,51.043C-33.493,57.466 -27.103,61.219 -17.266,61.09C-13.97,60.77 -11.729,59.727 -9.012,57.871C-6.992,55.324 -7.003,54.082 -7.137,50.809C-8.178,47.312 -8.976,46.759 -12.012,44.871C-14.552,43.933 -14.552,43.933 -17.336,43.258C-18.88,42.839 -18.88,42.839 -20.455,42.412C-22.597,41.849 -24.74,41.291 -26.885,40.74C-34.729,38.597 -41.724,35.907 -46.984,29.449C-50.2,22.579 -51.315,16.88 -49.383,9.453C-46.751,2.408 -41.96,-1.155 -35.387,-4.441C-23.594,-7.855 -10.248,-7.244 0,0Z" style="fill-rule:nonzero;"/>
    </g>
    <g transform="matrix(1,0,0,1,573,108)">
        <path d="M0,0C1,1 1,1 1.114,2.949C1.108,3.782 1.103,4.615 1.098,5.473C1.094,6.372 1.091,7.271 1.088,8.197C1.075,9.616 1.075,9.616 1.063,11.063C1.058,12.012 1.053,12.961 1.049,13.939C1.037,16.293 1.021,18.646 1,21C0.315,20.769 -0.371,20.539 -1.077,20.301C-8.181,17.953 -14.124,16.483 -21.25,19.625C-25.528,21.995 -28.116,25.154 -29.585,29.884C-30.048,32.245 -30.161,34.454 -30.205,36.86C-30.225,37.821 -30.245,38.782 -30.266,39.772C-30.282,40.801 -30.299,41.83 -30.316,42.891C-30.337,43.95 -30.358,45.01 -30.379,46.102C-30.445,49.485 -30.504,52.867 -30.563,56.25C-30.606,58.544 -30.649,60.839 -30.693,63.133C-30.8,68.755 -30.902,74.378 -31,80L-50,80L-50,1L-34,1C-33.67,3.64 -33.34,6.28 -33,9C-32.455,8.457 -31.909,7.915 -31.348,7.355C-21.879,-1.627 -12.542,-4.351 0,0Z" style="fill-rule:nonzero;"/>
    </g>
    <g transform="matrix(1,0,0,1,587,109)">
        <rect x="0" y="0" width="19" height="79"/>
    </g>
    <g transform="matrix(1,0,0,1,208,65)">
        <path d="M0,0C1.018,0.982 2.026,1.975 3,3C-0.835,3 -1.717,1.866 -4.688,-0.5C-24.559,-15.325 -48.999,-21.702 -73.612,-18.679C-83.912,-17.105 -93.649,-14.703 -103,-10C-103.918,-9.559 -104.836,-9.118 -105.781,-8.664C-112.97,-5.009 -118.976,-0.333 -125,5C-125.625,5.541 -126.25,6.083 -126.895,6.641C-152.235,30.142 -160.304,68.977 -162,102C-162.215,108.811 -162.245,115.624 -162.25,122.438C-162.251,123.373 -162.252,124.309 -162.253,125.273C-162.243,138.709 -161.975,151.838 -159,165C-158.855,165.668 -158.711,166.336 -158.562,167.024C-151.979,196.637 -136.442,224.771 -110.601,241.589C-89.903,254.62 -65.222,258.382 -41.422,253.004C-36.892,251.675 -32.651,249.916 -28.391,247.891C-26,247 -26,247 -23,248C-26.4,250.953 -30.073,252.266 -34.313,253.563C-35.015,253.779 -35.718,253.995 -36.442,254.218C-58.934,260.831 -83.15,259.072 -104.074,248.438C-120.712,239.235 -133.816,225.878 -144,210C-144.531,209.227 -145.062,208.453 -145.609,207.656C-153.128,196.176 -161,178.862 -161,165C-161.66,164.67 -162.32,164.34 -163,164C-163.379,161.445 -163.379,161.445 -163.563,158.125C-163.799,154.119 -164.09,150.142 -164.512,146.152C-165.238,138.261 -165.243,130.356 -165.25,122.438C-165.251,121.625 -165.252,120.812 -165.253,119.974C-165.223,83.798 -160.319,45.558 -137.566,16.172C-135.833,13.996 -135.833,13.996 -135,11C-133.469,9.457 -133.469,9.457 -131.5,7.813C-130.785,7.205 -130.069,6.598 -129.332,5.973C-128.562,5.322 -127.793,4.671 -127,4C-125.391,2.588 -123.787,1.172 -122.188,-0.25C-121.459,-0.895 -120.731,-1.539 -119.98,-2.203C-118.054,-3.9 -118.054,-3.9 -116.626,-5.48C-114.845,-7.145 -113.201,-8.065 -111.008,-9.121C-109.836,-9.686 -109.836,-9.686 -108.641,-10.261C-107.811,-10.65 -106.981,-11.038 -106.125,-11.438C-105.269,-11.838 -104.414,-12.238 -103.532,-12.651C-69.272,-28.379 -29.269,-24.132 0,0Z" style="fill-rule:nonzero;"/>
    </g>
    <g transform="matrix(1,0,0,1,434,71)">
        <path d="M0,0L1,0C1.33,37.95 1.66,75.9 2,115C8.93,115.495 8.93,115.495 16,116C15.99,114.522 15.979,113.044 15.968,111.521C15.932,106.022 15.909,100.522 15.89,95.022C15.88,92.645 15.866,90.268 15.849,87.89C15.825,84.467 15.813,81.044 15.805,77.621C15.794,76.564 15.784,75.506 15.773,74.416C15.772,67.278 16.104,61.816 20.188,55.75C24.981,51.063 28.905,49.842 35.438,49.625C41.084,49.811 46.146,50.532 50.531,54.324C56.571,61.013 56.276,68.258 56.195,76.742C56.192,77.866 56.19,78.989 56.187,80.147C56.176,83.723 56.15,87.299 56.125,90.875C56.115,93.305 56.106,95.734 56.098,98.164C56.076,104.109 56.041,110.055 56,116C60.95,115.67 65.9,115.34 71,115C70.956,107.368 70.886,99.737 70.792,92.106C70.764,89.513 70.743,86.921 70.729,84.328C70.707,80.587 70.661,76.847 70.609,73.105C70.608,71.959 70.607,70.813 70.606,69.632C70.504,63.943 69.81,58.158 67.804,52.898C66.505,49.49 64.655,46.302 62.059,43.504C57.598,40.246 52.213,38.678 47,37L47,36C54.444,36.406 60.652,38.31 65.797,43.98C67.596,46.496 68.98,49.035 70.04,51.622C72.918,58.645 73.401,66.018 73.293,74.227C73.289,75.455 73.284,76.684 73.28,77.95C73.263,81.842 73.226,85.733 73.188,89.625C73.172,92.277 73.159,94.93 73.146,97.582C73.114,104.055 73.062,110.527 73,117L54,117C53.991,115.436 53.981,113.873 53.972,112.262C53.932,106.439 53.866,100.617 53.792,94.795C53.764,92.28 53.743,89.764 53.729,87.248C53.708,83.623 53.661,79.999 53.609,76.375C53.608,75.257 53.607,74.139 53.606,72.987C53.48,66.233 52.673,61.728 49,56C43.213,52.142 36.785,52.217 30,53C26.788,53.816 24.543,54.884 22,57C18.693,63.674 18.531,69.797 18.488,77.156C18.47,78.299 18.452,79.442 18.434,80.62C18.38,84.246 18.346,87.873 18.313,91.5C18.279,93.969 18.245,96.438 18.209,98.906C18.124,104.937 18.057,110.969 18,117L-1,117C-1.023,104.993 -1.041,92.987 -1.052,80.98C-1.057,75.403 -1.064,69.826 -1.075,64.248C-1.086,58.847 -1.092,53.446 -1.095,48.045C-1.097,46.003 -1.1,43.961 -1.106,41.92C-1.142,27.918 -0.762,13.981 0,0Z" style="fill-rule:nonzero;"/>
    </g>
    <g transform="matrix(1,0,0,1,548.926,244.664)">
        <path d="M0,0C5.584,3.596 10.165,7.96 14.074,13.336C13.414,13.996 12.754,14.656 12.074,15.336C11.6,14.49 11.125,13.645 10.637,12.773C5.805,5.644 -0.94,1.644 -9.23,-0.238C-13.197,-0.865 -16.927,-0.961 -20.926,-0.664C-22.175,-0.583 -22.175,-0.583 -23.449,-0.5C-26.713,-0.243 -26.713,-0.243 -29.926,0.336C-30.256,0.996 -30.586,1.656 -30.926,2.336C-31.606,2.418 -32.287,2.501 -32.988,2.586C-38.89,4.093 -43.53,8.387 -46.926,13.336C-47.622,14.654 -48.298,15.984 -48.926,17.336L-50.926,17.336C-55.71,29.048 -58.887,42.453 -54.301,54.773C-53.553,56.316 -52.761,57.839 -51.926,59.336C-51.525,60.115 -51.124,60.893 -50.711,61.695C-46.013,69.812 -38.495,74.448 -29.676,77.273C-17.69,80.005 -4.365,79.411 6.367,72.957C7.971,71.796 9.528,70.573 11.074,69.336L13.074,69.336L16.074,63.336C15.332,63.068 14.589,62.8 13.824,62.523C11.074,61.336 11.074,61.336 9.074,59.586C8.084,58.967 8.084,58.967 7.074,58.336C4.359,58.905 4.359,58.905 2.074,60.336C1.744,60.996 1.414,61.656 1.074,62.336C-6.121,66.333 -15.135,68.676 -23.289,66.789C-25.211,66.079 -27.074,65.213 -28.926,64.336C-29.757,64.064 -30.589,63.792 -31.445,63.512C-36.049,61.329 -37.95,56.858 -39.926,52.336C-40.674,48.989 -41.085,45.767 -40.926,42.336C-39.926,41.336 -39.926,41.336 -37.604,41.216C-36.575,41.218 -35.547,41.22 -34.488,41.222C-32.746,41.223 -32.746,41.223 -30.969,41.223C-29.074,41.23 -29.074,41.23 -27.141,41.238C-25.212,41.24 -25.212,41.24 -23.244,41.243C-19.819,41.246 -16.395,41.256 -12.971,41.267C-9.478,41.277 -5.986,41.282 -2.494,41.287C4.362,41.298 11.218,41.315 18.074,41.336C17.79,38.647 17.497,35.96 17.199,33.273C17.121,32.521 17.042,31.769 16.961,30.994C16.426,26.244 15.515,21.895 14.074,17.336L16.074,17.336C19.693,26.618 20.074,32.66 20.074,43.336L-38.926,43.336C-36.498,53.863 -36.498,53.863 -29.926,61.336C-23.641,64.583 -17.097,65.419 -10.262,63.645C-3.844,61.532 0.889,58.64 6.074,54.336C10.034,57.306 13.994,60.276 18.074,63.336C14.851,71.393 8.749,74.821 0.949,78.211C-3.375,79.876 -7.268,81.077 -11.926,81.336C-12.659,81.386 -13.393,81.436 -14.148,81.488C-26.097,81.962 -38.287,78.365 -47.195,70.211C-55.022,61.73 -58.815,51.719 -59.238,40.211C-58.225,27.649 -54.83,15.393 -45.066,6.676C-32.434,-2.694 -14.979,-7.372 0,0Z" style="fill-rule:nonzero;"/>
    </g>
    <g transform="matrix(1,0,0,1,406,271)">
        <path d="M0,0C1.115,3.345 0.832,3.765 0,7C-0.886,18.12 0.039,27.935 5.868,37.096C6.704,38.41 7.641,39.711 8.688,41C17.045,49.561 27.475,52.04 39.063,52.25C50.09,52.049 60.865,48.873 69,41C69.33,40.01 69.66,39.02 70,38C68.931,36.964 67.844,35.947 66.75,34.938C66.147,34.369 65.543,33.801 64.922,33.215C63.078,31.761 63.078,31.761 60.906,32.281C60.277,32.518 59.648,32.756 59,33C57.667,33.333 56.333,33.667 55,34C57.475,31.525 57.475,31.525 60,29C65.089,30.59 68.875,33.745 73,37C71.374,43.142 66.871,46.25 61.668,49.422C49.648,55.857 36.908,56.612 23.852,52.969C14.583,49.82 7.053,44.429 2.203,35.805C-3.265,24.373 -4.848,13.224 -1,1C-0.67,0.67 -0.34,0.34 0,0ZM66,-15C68.725,-13.983 69.809,-13.348 71.23,-10.758C71.546,-9.889 71.862,-9.02 72.188,-8.125C72.673,-6.829 72.673,-6.829 73.168,-5.508C75.897,2.717 75,6.613 75,17C46.29,17.495 46.29,17.495 17,18C19.055,27.585 19.055,27.585 24.813,34.75C30.464,37.979 36.621,38.839 43,38C47.081,36.869 51.041,35.5 55,34L55,36C53.585,36.65 52.168,37.295 50.75,37.938C49.961,38.297 49.172,38.657 48.359,39.027C40.494,42.27 33.688,41.104 26,38C20.844,35.773 18.443,31.896 16,27C14.491,22.868 15,19.763 15,15L74,15C72.742,3.194 72.742,3.194 69.438,-7.313C69.003,-8.361 68.569,-9.409 68.121,-10.488C67.444,-12.006 66.743,-13.514 66,-15Z" style="fill-rule:nonzero;"/>
    </g>
    <g transform="matrix(1,0,0,1,672.012,112.129)">
        <path d="M0,0C7.377,6.388 7.377,6.388 7.988,10.871C6.583,11.907 5.163,12.925 3.738,13.934C2.949,14.502 2.16,15.071 1.348,15.656C-1.012,16.871 -1.012,16.871 -3.16,16.676C-5.012,15.871 -5.012,15.871 -7.387,13.934C-13.064,9.473 -19.059,9.378 -26.012,9.871C-27.353,10.169 -28.691,10.491 -30.012,10.871C-30.147,12.306 -30.244,13.745 -30.324,15.184C-30.382,15.984 -30.44,16.785 -30.5,17.609C-30.217,20.023 -30.217,20.023 -28.137,21.484C-22.932,23.794 -17.444,25.052 -11.936,26.445C-4.472,28.446 2.396,31.247 7.363,37.434C7.825,37.992 8.286,38.55 8.762,39.125C12.248,44.088 13.05,48.861 12.988,54.871C11.957,60.68 9.675,66.112 4.988,69.871C-2.317,74.501 -10.257,77.761 -19.012,77.871C-20.497,76.881 -20.497,76.881 -22.012,75.871C-20.95,75.701 -19.887,75.531 -18.793,75.355C-11.21,74.077 -4.72,72.817 1.988,68.871C2.978,68.541 3.968,68.211 4.988,67.871C6.09,66.173 6.09,66.173 6.988,63.871C7.525,62.778 8.061,61.685 8.613,60.559C10.986,54.194 10.23,48.637 8.141,42.301C5.628,37.002 1.591,34.005 -3.711,31.695C-7.995,30.214 -12.34,29.05 -16.719,27.883C-17.95,27.549 -19.181,27.215 -20.449,26.871C-21.582,26.582 -22.715,26.294 -23.883,25.996C-27.85,24.57 -31.082,22.731 -33.012,18.871C-33.387,16.059 -33.387,16.059 -33.012,12.871C-30.944,10.286 -29.244,8.424 -26.199,7.059C-25.477,6.997 -24.755,6.935 -24.012,6.871C-22.815,6.768 -21.619,6.665 -20.387,6.559C-14.684,6.623 -8.464,8.632 -4.219,12.508C-3.82,12.958 -3.422,13.408 -3.012,13.871C-0.04,12.747 2.323,11.648 4.988,9.871C2.912,5.003 -0.585,2.585 -5.012,-0.129C-8.636,-1.487 -8.636,-1.487 -12.012,-2.129C-12.602,-2.302 -13.193,-2.474 -13.801,-2.652C-22.591,-4.547 -32.309,-3.976 -40.012,0.871C-44.487,4.816 -46.634,8.23 -47.25,14.168C-47.436,20.332 -46.598,24.781 -43.012,29.871C-36.379,36.894 -25.579,38.625 -16.527,40.746C-12.675,41.979 -10.243,43.493 -7.012,45.871C-7.507,46.861 -7.507,46.861 -8.012,47.871C-8.562,47.409 -9.112,46.948 -9.679,46.472C-12.245,44.711 -14.332,44.033 -17.336,43.258C-18.365,42.979 -19.395,42.7 -20.455,42.412C-22.597,41.849 -24.74,41.291 -26.885,40.74C-34.729,38.597 -41.724,35.907 -46.984,29.449C-50.2,22.579 -51.315,16.88 -49.383,9.453C-46.751,2.408 -41.96,-1.155 -35.387,-4.441C-23.594,-7.855 -10.248,-7.244 0,0Z" style="fill-rule:nonzero;"/>
    </g>
    <g transform="matrix(1,0,0,1,600,71)">
        <path d="M0,0C3.669,1.631 6.083,3.454 8,7C9.117,11.541 9.597,14.565 7.5,18.813C5.037,22.512 2.299,23.834 -2,25C-7.308,24.908 -10.247,23.753 -14,20C-16.664,16.448 -16.544,12.267 -16,8C-12.966,0.814 -7.321,-1.099 0,0Z" style="fill-rule:nonzero;"/>
    </g>
    <g transform="matrix(1,0,0,1,221,278)">
        <path d="M0,0C1.328,0.71 1.328,0.71 2.684,1.434C12.444,6.645 22.219,11.828 32,17C28.235,34.44 4.401,52.413 -9.813,61.688C-38.411,79.712 -71.738,87.216 -105.305,80.408C-107.212,79.975 -109.106,79.488 -111,79C-111.651,78.834 -112.303,78.667 -112.974,78.496C-127.697,74.626 -141.988,68.444 -154,59C-153.01,58.505 -153.01,58.505 -152,58C-149.748,59.271 -147.605,60.596 -145.438,62C-131.763,70.477 -117.761,75.083 -102,78C-101.081,78.175 -100.163,78.35 -99.217,78.531C-81.57,81.106 -60.978,80.485 -44,75C-42.818,74.649 -41.636,74.299 -40.418,73.938C-22.528,68.155 -7.149,58.083 6.492,45.297C8.149,43.779 9.859,42.317 11.617,40.918C19.299,34.735 24.553,26.102 30,18C29.197,17.772 28.394,17.544 27.566,17.309C23.075,15.661 19.088,13.422 14.938,11.063C14.148,10.62 13.358,10.177 12.545,9.721C8.662,7.537 4.805,5.319 1,3C0.112,3.996 0.112,3.996 -0.793,5.012C-4.764,9.449 -8.72,13.858 -13,18C-13,13.944 -11.494,13.038 -8.75,10.125C-5.682,6.847 -2.765,3.539 0,0Z" style="fill-rule:nonzero;"/>
    </g>
    <g transform="matrix(1,0,0,1,587,109)">
        <path d="M0,0L19,0L19,79L0,79L0,0ZM2,2L2,78L17,78L17,1C9.235,0.379 9.235,0.379 2,2Z" style="fill-rule:nonzero;"/>
    </g>
    <g transform="matrix(1,0,0,1,3,163)">
        <path d="M0,0L1,0C0.99,0.702 0.979,1.403 0.968,2.126C0.397,46.751 2.945,98.7 31,136L28,136C16.116,116.056 7.916,96.241 3.25,73.438C2.952,71.986 2.952,71.986 2.648,70.506C-0.36,54.942 -1.313,39.582 -1.206,23.753C-1.187,20.881 -1.185,18.01 -1.186,15.139C-1.181,13.31 -1.175,11.481 -1.168,9.652C-1.167,8.795 -1.166,7.938 -1.165,7.055C-1.116,1.116 -1.116,1.116 0,0Z" style="fill-rule:nonzero;"/>
    </g>
    <g transform="matrix(1,0,0,1,390.66,91.5469)">
        <path d="M0,0C4.918,3.274 8.953,6.599 12.34,11.453L12.34,13.453C13.255,13.02 14.17,12.587 15.113,12.141C16.302,11.584 17.49,11.027 18.715,10.453C19.898,9.896 21.082,9.339 22.301,8.766C25.34,7.453 25.34,7.453 27.34,7.453L27.34,5.453L29.34,5.453L29.34,8.453C26.908,9.653 24.47,10.838 22.027,12.016C20.992,12.529 20.992,12.529 19.936,13.053C14.68,15.566 14.68,15.566 11.34,14.453C9.832,12.816 9.832,12.816 8.215,10.766C2.135,3.606 -5.131,-1.077 -14.613,-1.883C-26.179,-2.128 -35.108,-0.853 -43.844,7.406C-52.184,16.805 -55.676,28.039 -55.66,40.453C-54.989,47.795 -53.191,54.55 -50.66,61.453L-52.66,61.453C-53.309,59.871 -53.954,58.287 -54.598,56.703C-54.957,55.821 -55.317,54.94 -55.688,54.031C-56.953,50.678 -57.733,47.147 -58.087,43.554C-58.923,35.062 -57.375,26.215 -54.207,18.508C-51.886,13.924 -49.202,10.165 -45.66,6.453C-45.053,5.806 -44.446,5.159 -43.82,4.492C-32.219,-6.753 -13.817,-8.034 0,0Z" style="fill-rule:nonzero;"/>
    </g>
    <g transform="matrix(1,0,0,1,405,152)">
        <path d="M0,0C3.745,0.669 6.533,2.325 9.75,4.313C10.735,4.907 11.72,5.501 12.734,6.113C13.482,6.736 14.23,7.359 15,8C15,14.519 10.54,18.195 6.316,22.859C2.068,26.985 -2.762,29.654 -8,32.313C-8.997,32.819 -8.997,32.819 -10.013,33.336C-22.583,39.44 -37.761,40.353 -51.063,35.938C-57.459,33.496 -62.73,30.342 -68,26C-68.753,25.397 -69.506,24.793 -70.281,24.172C-73.95,21.114 -76.881,18.371 -79,14C-75.487,15.481 -73.444,17.463 -70.875,20.25C-60.451,30.844 -48.269,35.352 -33.563,35.5C-22.047,35.404 -9.523,33.523 -1,25C0.228,24.165 1.457,23.332 2.688,22.5C7.655,18.85 10.737,14.16 14,9C13.411,8.715 12.822,8.43 12.215,8.137C10.241,7.124 8.429,6.006 6.563,4.813C3.226,2.721 3.226,2.721 0.063,3.25C-0.618,3.498 -1.299,3.745 -2,4C-1.34,2.68 -0.68,1.36 0,0Z" style="fill-rule:nonzero;"/>
    </g>
    <g transform="matrix(1,0,0,1,573,109)">
        <path d="M0,0L1,0L1,20C-0.485,19.505 -1.97,19.01 -3.5,18.5C-9.864,16.627 -14.981,15.861 -21.25,18.625C-25.528,20.995 -28.116,24.154 -29.585,28.884C-30.048,31.245 -30.161,33.454 -30.205,35.86C-30.225,36.821 -30.245,37.782 -30.266,38.772C-30.282,39.801 -30.299,40.83 -30.316,41.891C-30.337,42.95 -30.358,44.01 -30.379,45.102C-30.445,48.485 -30.504,51.867 -30.563,55.25C-30.606,57.544 -30.649,59.839 -30.693,62.133C-30.8,67.755 -30.902,73.378 -31,79L-47,79L-47,77L-33,77C-33.016,75.714 -33.031,74.428 -33.048,73.104C-33.102,68.301 -33.136,63.498 -33.165,58.696C-33.18,56.623 -33.2,54.55 -33.226,52.478C-33.263,49.486 -33.28,46.495 -33.293,43.504C-33.308,42.588 -33.324,41.672 -33.34,40.728C-33.342,32.309 -31.711,24.729 -25.793,18.445C-21.16,14.711 -16.028,13.678 -10.188,14.188C-7.094,14.61 -4.739,15.504 -2,17C-0.855,12.706 -0.957,8.611 -1.063,4.207C-1,2 -1,2 0,0Z" style="fill-rule:nonzero;"/>
    </g>
    <g transform="matrix(1,0,0,1,368,70)">
        <path d="M0,0C-2.472,2.472 -3.977,2.554 -7.375,3.25C-21.541,6.686 -33.257,14.731 -41.66,26.738C-47.955,37.363 -51.395,47.515 -51.313,59.813C-51.307,60.696 -51.301,61.58 -51.295,62.49C-51.096,73.239 -48.253,81.149 -43.109,90.566C-42.743,91.369 -42.377,92.173 -42,93C-42.495,93.99 -42.495,93.99 -43,95C-52.832,82.021 -55.508,66.974 -54,51C-51.427,36.538 -44.174,25.348 -34,15C-33.362,14.349 -32.724,13.698 -32.066,13.027C-23.398,4.828 -11.984,-0.489 0,0Z" style="fill-rule:nonzero;"/>
    </g>
    <g transform="matrix(1,0,0,1,145,3)">
        <path d="M0,0C36.224,0.999 67.954,15.017 94,40C89.844,40 88.116,37.713 85.188,35.063C60.384,13.412 31.191,4.945 -1,2C-0.67,1.34 -0.34,0.68 0,0Z" style="fill-rule:nonzero;"/>
    </g>
    <g transform="matrix(1,0,0,1,542.312,257.062)">
        <path d="M0,0C3.704,2.671 6.031,5.674 7.688,9.938C8.182,14.393 8.182,14.393 8.688,18.938L-32.313,18.938C-33.698,14.781 -32.298,12.91 -30.473,9.086C-27.272,3.159 -21.613,0.328 -15.367,-1.691C-10.227,-2.62 -4.911,-1.575 0,0ZM-27.25,6.75C-29.798,10.348 -29.798,10.348 -31.313,16.938L6.688,16.938C5.598,9.309 4.625,6.17 -1.438,1.563C-9.984,-2.784 -20.865,-0.213 -27.25,6.75Z" style="fill-rule:nonzero;"/>
    </g>
    <g transform="matrix(1,0,0,1,457.5,259.25)">
        <path d="M0,0C3.958,4.354 5.667,7.575 5.57,13.453C5.56,14.259 5.55,15.065 5.54,15.896C5.526,16.507 5.513,17.119 5.5,17.75C-0.018,17.632 -5.535,17.508 -11.053,17.378C-12.931,17.334 -14.809,17.293 -16.687,17.253C-19.382,17.195 -22.078,17.131 -24.773,17.066C-25.616,17.05 -26.459,17.033 -27.327,17.016C-33.272,16.864 -33.272,16.864 -35.5,15.75C-34.707,9.21 -31.786,4.494 -26.75,0.438C-18.737,-5.067 -8.164,-6.275 0,0ZM-29.438,4.563C-31.985,8.16 -31.985,8.16 -33.5,14.75L4.5,14.75C2.471,5.617 1.958,3.688 -5.25,-1.063C-13.806,-4.189 -23.175,-2.288 -29.438,4.563Z" style="fill:white;fill-rule:nonzero;"/>
    </g>
    <g transform="matrix(1,0,0,1,665,160)">
        <path d="M0,0C0.66,0.33 1.32,0.66 2,1C2.608,8.177 2.608,8.177 -0.125,11.875C-5.737,16.023 -10.338,16.391 -17.117,15.605C-24.339,14.089 -30.225,10.571 -35,5C-39.455,8.465 -39.455,8.465 -44,12C-42.232,15.536 -40.388,17.739 -37.474,19.608C-36.726,20.089 -35.906,20.547 -35,21C-34.402,21.474 -33.804,21.949 -33.188,22.438C-28.03,26.121 -22.114,26.884 -16,28C-16.33,28.66 -16.66,29.32 -17,30C-29.016,27.924 -38.325,24.944 -46,15C-46.33,13.68 -46.66,12.36 -47,11C-43.04,8.03 -39.08,5.06 -35,2C-33.989,2.908 -32.979,3.815 -31.938,4.75C-25.229,10.494 -19.122,13.336 -10.254,13.219C-6.959,12.899 -4.717,11.856 -2,10C0.4,6.836 0.176,3.873 0,0Z" style="fill-rule:nonzero;"/>
    </g>
    <g transform="matrix(1,0,0,1,600,71)">
        <path d="M0,0C3.669,1.631 6.083,3.454 8,7C9.117,11.541 9.597,14.565 7.5,18.813C5.037,22.512 2.299,23.834 -2,25C-7.308,24.908 -10.247,23.753 -14,20C-16.289,16.73 -16.178,13.92 -16,10C-15.34,9.67 -14.68,9.34 -14,9C-13.67,12.3 -13.34,15.6 -13,19L-11,19L-11,21C-4.403,22.156 -4.403,22.156 2,20.813C5.112,17.992 5.901,16.191 6.25,12C6.001,9.016 5.728,7.42 4,5C0.927,2.636 -2.351,2.654 -6.094,2.73C-8.691,3.098 -10.167,4.167 -12,6C-12.66,5.67 -13.32,5.34 -14,5C-9.493,0.343 -6.533,-0.704 0,0Z" style="fill-rule:nonzero;"/>
    </g>
    <g transform="matrix(1,0,0,1,340,153)">
        <path d="M0,0C5,5 5,5 7.313,7.5C15.674,15.278 24.532,18.178 35.875,18.063C37.027,18.053 38.18,18.044 39.367,18.035C40.67,18.018 40.67,18.018 42,18C41.67,18.66 41.34,19.32 41,20C32.137,22.261 22.044,20.775 14.051,16.406C8.723,12.753 3.59,8.386 0,3L0,0Z" style="fill-rule:nonzero;"/>
    </g>
    <g transform="matrix(1,0,0,1,41,53)">
        <path d="M0,0L2,0C0.608,3.151 -1.259,5.772 -3.326,8.517C-11.293,19.144 -16.784,30.83 -22,43L-24,43C-22.153,36.954 -19.926,31.382 -16.938,25.813C-16.553,25.089 -16.168,24.365 -15.771,23.619C-11.78,16.296 -6.992,9.662 -2,3C-1.34,2.01 -0.68,1.02 0,0Z" style="fill-rule:nonzero;"/>
    </g>
    <g transform="matrix(1,0,0,1,239,44)">
        <path d="M0,0C3.884,1.55 6.03,4.005 8.75,7.125C9.549,8.035 10.348,8.945 11.172,9.883C11.775,10.581 12.378,11.28 13,12C11.678,15.966 10.109,16.369 6.504,18.391C5.388,19.017 4.273,19.644 3.123,20.289C2.539,20.61 1.955,20.932 1.353,21.263C-0.434,22.248 -2.21,23.252 -3.986,24.258C-10.478,27.869 -10.478,27.869 -13,29C-13.66,28.67 -14.32,28.34 -15,28C-6.738,22.869 1.574,17.858 10,13C9.613,12.564 9.227,12.129 8.828,11.68C5.56,7.943 2.659,4.192 0,0Z" style="fill-rule:nonzero;"/>
    </g>
    <g transform="matrix(1,0,0,1,76,22)">
        <path d="M0,0L0,3C-2.457,4.91 -2.457,4.91 -5.813,7.063C-13.267,11.987 -20.996,17.495 -26,25L-28,25C-28.66,26.32 -29.32,27.64 -30,29L-33,29C-22.973,17.734 -12.798,8.07 0,0Z" style="fill-rule:nonzero;"/>
    </g>
    <g transform="matrix(1,0,0,1,204,297)">
        <path d="M0,0C0.66,0.33 1.32,0.66 2,1C-0.157,3.373 -2.498,5.6 -5.012,7.6C-8.934,10.719 -13.276,13.288 -18,15L-18,13C-16.358,11.848 -14.659,10.779 -12.938,9.75C-8.202,6.831 -4.107,3.742 0,0Z" style="fill-rule:nonzero;"/>
    </g>
    <g transform="matrix(1,0,0,1,402,157)">
        <path d="M0,0C0,3.6 -0.541,3.974 -3,6.438C-6.668,9.978 -10.351,11.961 -15,14C-15.33,13.34 -15.66,12.68 -16,12C-15.348,11.636 -14.695,11.273 -14.023,10.898C-8.566,7.759 -4.226,4.67 0,0Z" style="fill-rule:nonzero;"/>
    </g>
    <g transform="matrix(1,0,0,1,124,354)">
        <path d="M0,0L3,0L3,3L12,3L12,4C10.23,4.054 8.459,4.093 6.688,4.125C5.208,4.16 5.208,4.16 3.699,4.195C1,4 1,4 -2,2C-1.34,1.34 -0.68,0.68 0,0Z" style="fill-rule:nonzero;"/>
    </g>
    <g transform="matrix(1,0,0,1,409,262)">
        <path d="M0,0C0.66,0.33 1.32,0.66 2,1C0.515,4.465 0.515,4.465 -1,8L-3,8C-2.453,4.625 -1.945,2.918 0,0Z" style="fill-rule:nonzero;"/>
    </g>
    <g transform="matrix(1,0,0,1,166,42)">
        <path d="M0,0L2,0C2.33,0.66 2.66,1.32 3,2C3.99,2.66 4.98,3.32 6,4C4.541,3.886 3.083,3.758 1.625,3.625C0.407,3.521 0.407,3.521 -0.836,3.414C-3,3 -3,3 -5,1L0,1L0,0Z" style="fill-rule:nonzero;"/>
    </g>
</svg>
