<?xml version="1.0" encoding="UTF-8" standalone="no"?>
<!DOCTYPE svg PUBLIC "-//W3C//DTD SVG 1.1//EN" "http://www.w3.org/Graphics/SVG/1.1/DTD/svg11.dtd">
<svg width="100%" height="100%" viewBox="0 0 248 150" version="1.1" xmlns="http://www.w3.org/2000/svg" xmlns:xlink="http://www.w3.org/1999/xlink" xml:space="preserve" xmlns:serif="http://www.serif.com/" style="fill-rule:evenodd;clip-rule:evenodd;stroke-linejoin:round;stroke-miterlimit:2;">
    <g transform="matrix(0.162499,0,0,0.162499,122.248,75.1247)">
        <g id="React_-web_framework--Logo.wine.svg" serif:id="React_(web_framework)-Logo.wine.svg" transform="matrix(1,0,0,1,-600,-400)">
            <g transform="matrix(1,0,0,1,-214.481,-95.2163)">
                <path d="M1113.92,495.277C1113.92,455.604 1064.24,418.006 988.067,394.69C1005.65,317.052 997.833,255.283 963.409,235.508C955.474,230.869 946.197,228.672 936.065,228.672L936.065,255.894C941.68,255.894 946.197,256.992 949.981,259.068C966.583,268.589 973.785,304.845 968.17,351.476C966.827,362.951 964.63,375.036 961.944,387.366C938.018,381.506 911.894,376.989 884.428,374.06C867.948,351.476 850.858,330.968 833.646,313.024C873.442,276.036 910.796,255.772 936.187,255.772L936.187,228.55C902.617,228.55 858.671,252.476 814.237,293.98C769.802,252.72 725.856,229.038 692.287,229.038L692.287,256.26C717.556,256.26 755.032,276.402 794.827,313.146C777.737,331.09 760.647,351.476 744.411,374.06C716.823,376.989 690.7,381.506 666.773,387.488C663.966,375.28 661.891,363.439 660.426,352.087C654.688,305.455 661.769,269.2 678.248,259.556C681.91,257.359 686.671,256.382 692.287,256.382L692.287,229.16C682.033,229.16 672.755,231.357 664.698,235.996C630.396,255.772 622.705,317.418 640.406,394.812C564.477,418.25 515.038,455.726 515.038,495.277C515.038,534.951 564.721,572.549 640.894,595.865C623.316,673.503 631.128,735.271 665.553,755.047C673.487,759.686 682.765,761.883 693.019,761.883C726.589,761.883 770.535,737.957 814.969,696.452C859.403,737.713 903.349,761.395 936.919,761.395C947.173,761.395 956.451,759.197 964.508,754.559C998.81,734.783 1006.5,673.136 988.8,595.743C1064.49,572.427 1113.92,534.829 1113.92,495.277ZM954.986,413.855C950.469,429.603 944.854,445.838 938.506,462.074C933.501,452.308 928.252,442.542 922.515,432.776C916.899,423.011 910.918,413.489 904.936,404.211C922.271,406.775 938.994,409.949 954.986,413.855ZM899.077,543.862C889.555,560.342 879.789,575.967 869.657,590.494C851.469,592.081 833.036,592.935 814.481,592.935C796.048,592.935 777.615,592.081 759.548,590.616C749.416,576.089 739.528,560.586 730.007,544.228C720.729,528.237 712.306,512.001 704.616,495.644C712.184,479.286 720.729,462.928 729.885,446.937C739.406,430.457 749.172,414.832 759.304,400.305C777.493,398.718 795.926,397.864 814.481,397.864C832.914,397.864 851.347,398.718 869.413,400.183C879.545,414.71 889.433,430.213 898.955,446.571C908.232,462.562 916.655,478.798 924.346,495.155C916.655,511.513 908.232,527.871 899.077,543.862ZM938.506,527.993C945.098,544.35 950.713,560.708 955.352,576.577C939.361,580.484 922.515,583.78 905.058,586.343C911.04,576.944 917.021,567.3 922.637,557.412C928.252,547.646 933.501,537.758 938.506,527.993ZM814.725,658.244C803.372,646.525 792.02,633.463 780.789,619.181C791.775,619.669 803.006,620.035 814.359,620.035C825.834,620.035 837.186,619.791 848.295,619.181C837.308,633.463 825.956,646.525 814.725,658.244ZM723.903,586.343C706.569,583.78 689.845,580.606 673.854,576.699C678.37,560.952 683.986,544.717 690.333,528.481C695.338,538.247 700.587,548.013 706.325,557.778C712.062,567.544 717.922,577.066 723.903,586.343ZM814.115,332.311C825.467,344.03 836.82,357.092 848.051,371.374C837.064,370.886 825.834,370.52 814.481,370.52C803.006,370.52 791.653,370.764 780.545,371.374C791.531,357.092 802.884,344.03 814.115,332.311ZM723.781,404.211C717.8,413.611 711.818,423.255 706.203,433.143C700.587,442.908 695.338,452.674 690.333,462.44C683.742,446.082 678.126,429.725 673.487,413.855C689.479,410.071 706.325,406.775 723.781,404.211ZM613.306,557.046C570.092,538.613 542.138,514.443 542.138,495.277C542.138,476.112 570.092,451.82 613.306,433.509C623.804,428.992 635.279,424.964 647.12,421.18C654.078,445.106 663.233,470.008 674.586,495.521C663.355,520.912 654.322,545.693 647.486,569.497C635.401,565.713 623.926,561.563 613.306,557.046ZM678.981,731.487C662.379,721.965 655.177,685.71 660.792,639.078C662.135,627.604 664.332,615.518 667.018,603.189C690.944,609.049 717.067,613.565 744.533,616.495C761.013,639.078 778.103,659.586 795.315,677.531C755.52,714.519 718.166,734.783 692.775,734.783C687.282,734.661 682.643,733.562 678.981,731.487ZM968.536,638.468C974.273,685.1 967.193,721.355 950.713,730.999C947.051,733.196 942.29,734.173 936.675,734.173C911.406,734.173 873.93,714.031 834.134,677.287C851.225,659.342 868.315,638.956 884.55,616.373C912.139,613.443 938.262,608.927 962.188,602.945C964.996,615.274 967.193,627.115 968.536,638.468ZM1015.53,557.046C1005.03,561.563 993.561,565.591 981.72,569.375C974.762,545.449 965.606,520.546 954.253,495.033C965.484,469.642 974.517,444.862 981.353,421.057C993.439,424.842 1004.91,428.992 1015.66,433.509C1058.87,451.942 1086.82,476.112 1086.82,495.277C1086.7,514.443 1058.75,538.735 1015.53,557.046Z" style="fill:rgb(97,218,251);fill-rule:nonzero;"/>
                <circle cx="814.359" cy="495.277" r="55.787" style="fill:rgb(97,218,251);"/>
            </g>
        </g>
        <g id="React_-web_framework--Logo.wine.svg1" serif:id="React_(web_framework)-Logo.wine.svg">
        </g>
    </g>
</svg>
