<?xml version="1.0" encoding="UTF-8" standalone="no"?>
<!DOCTYPE svg PUBLIC "-//W3C//DTD SVG 1.1//EN" "http://www.w3.org/Graphics/SVG/1.1/DTD/svg11.dtd">
<svg width="100%" height="100%" viewBox="0 0 248 150" version="1.1" xmlns="http://www.w3.org/2000/svg" xmlns:xlink="http://www.w3.org/1999/xlink" xml:space="preserve" xmlns:serif="http://www.serif.com/" style="fill-rule:evenodd;clip-rule:evenodd;stroke-linejoin:round;stroke-miterlimit:2;">
    <g>
        <g>
            <path d="M131.376,101.723C128.376,107.909 125.481,108.862 123.903,108.862C122.326,108.862 119.43,107.909 116.43,101.723C114.128,96.971 112.427,90.228 111.796,82.006C119.85,82.76 127.956,82.76 136.01,82.006C135.379,90.228 133.678,96.971 131.37,101.723M136.245,72.652C132.304,73.067 128.172,73.289 123.903,73.289C119.634,73.289 115.502,73.067 111.555,72.652C111.784,62.16 113.677,53.628 116.43,47.949C119.43,41.763 122.326,40.81 123.903,40.81C125.481,40.81 128.376,41.763 131.376,47.949C134.13,53.628 136.016,62.16 136.251,72.652M145.395,80.732C144.869,90.111 143.075,98.351 140.223,104.698C145.157,102.002 149.347,98.125 152.416,93.413C155.485,88.702 157.339,83.303 157.812,77.7C153.97,78.931 149.8,79.952 145.395,80.732ZM157.261,68.093C153.722,69.355 149.775,70.437 145.5,71.272C145.154,60.935 143.31,51.847 140.223,44.974C144.577,47.352 148.358,50.654 151.301,54.647C154.244,58.641 156.278,63.23 157.261,68.093ZM102.306,71.272C102.652,60.935 104.496,51.847 107.583,44.974C103.229,47.352 99.449,50.654 96.506,54.647C93.562,58.641 91.528,63.23 90.545,68.093C94.084,69.355 98.031,70.437 102.306,71.272ZM90.001,77.7C90.474,83.303 92.327,88.702 95.397,93.413C98.466,98.125 102.655,102.002 107.589,104.698C104.743,98.351 102.949,90.111 102.417,80.732C98.216,79.999 94.068,78.986 90.001,77.7ZM167.209,74.836C167.209,63.35 162.646,52.336 154.525,44.214C146.404,36.093 135.389,31.53 123.903,31.53C112.418,31.53 101.403,36.093 93.281,44.214C85.16,52.336 80.597,63.35 80.597,74.836C80.597,86.321 85.16,97.336 93.281,105.458C101.403,113.579 112.418,118.142 123.903,118.142C135.389,118.142 146.404,113.579 154.525,105.458C162.646,97.336 167.209,86.321 167.209,74.836Z" style="fill:white;"/>
        </g>
    </g>
</svg>
